<svg width="228" height="187" viewBox="0 0 228 187" fill="none" xmlns="http://www.w3.org/2000/svg">
<path d="M130.269 87.2578L112.796 54.3629C122.51 49.8607 128.451 40.3363 128.451 28.9811C128.451 11.377 115.334 0 95.0301 0H58.4892C57.3528 0 56.4312 0.918503 56.4312 2.05184V88.2168C56.4312 89.3501 57.3528 90.2686 58.4892 90.2686H72.8926C74.029 90.2686 74.9507 89.3501 74.9507 88.2168V57.4422H93.4764L110.33 89.1757C110.688 89.8483 111.389 90.2686 112.148 90.2686H128.451C129.173 90.2686 129.84 89.8919 130.21 89.2754C130.587 88.6589 130.606 87.893 130.269 87.2578ZM93.52 43.0825H74.9507V14.3598H93.1401C103.571 14.3598 109.932 19.8334 109.932 28.7538C109.932 37.8485 103.954 43.0825 93.52 43.0825Z" fill="#020617"/>
<path fill-rule="evenodd" clip-rule="evenodd" d="M161.345 74.0015C161.071 74.0015 160.847 73.7773 160.847 73.5002V65.022C160.847 64.1938 160.178 63.5212 159.35 63.5212H154.352C153.524 63.5212 152.855 64.1938 152.855 65.022V73.5002C152.855 73.7773 152.631 74.0015 152.354 74.0015H143.875C143.047 74.0015 142.375 74.6709 142.375 75.4991V80.4964C142.375 81.3215 143.047 81.994 143.875 81.994H152.354C152.631 81.994 152.855 82.2182 152.855 82.4922V90.9736C152.855 91.8018 153.524 92.4743 154.352 92.4743H159.35C160.178 92.4743 160.847 91.8018 160.847 90.9736V82.4922C160.847 82.2182 161.071 81.994 161.345 81.994H169.827C170.655 81.994 171.328 81.3215 171.328 80.4964V75.4991C171.328 74.6709 170.655 74.0015 169.827 74.0015H161.345Z" fill="#B68F00"/>
<path d="M141.943 0C159.435 0 171.189 11.2648 171.189 28.0312C171.189 44.8445 158.91 56.5859 141.324 56.5859H135.343L127.983 49.2275C129.514 47.4373 130.844 45.4741 131.945 43.3721H138.188C148.314 43.3721 154.258 38.0008 154.258 28.3799C154.258 18.479 148.479 13.1671 138.245 13.167H131.318C129.935 10.7696 128.244 8.57025 126.299 6.625C123.519 3.84556 120.221 1.58626 116.566 0H141.943Z" fill="#020617"/>
<path d="M1.8861 153.061V151.495C2.66901 151.448 3.22653 151.282 3.55867 150.997C3.91454 150.713 4.13992 150.286 4.23482 149.716C4.32972 149.147 4.37717 148.423 4.37717 147.545V132.741C4.37717 132.219 4.38903 131.721 4.41276 131.247C4.43648 130.748 4.46021 130.321 4.48393 129.965C4.08061 129.989 3.64171 130.013 3.16722 130.037C2.69273 130.06 2.26569 130.084 1.8861 130.108V128.151C3.33329 128.127 4.79235 128.115 6.26327 128.115C7.73419 128.091 9.21697 128.091 10.7116 128.115C12.9417 128.115 14.7804 128.376 16.2276 128.898C17.6747 129.396 18.7542 130.143 19.4659 131.14C20.2014 132.136 20.5573 133.394 20.5336 134.912C20.5573 135.861 20.3675 136.81 19.9642 137.759C19.5608 138.684 18.8847 139.515 17.9357 140.25C16.9867 140.986 15.6819 141.543 14.0212 141.923C14.4957 142.207 14.9227 142.599 15.3023 143.097C15.6819 143.595 16.0733 144.153 16.4767 144.77L18.6475 148.115C19.0982 148.826 19.5134 149.431 19.893 149.93C20.2726 150.428 20.6996 150.819 21.1741 151.104C21.6486 151.365 22.218 151.495 22.8823 151.495V153.061H17.9357C17.3189 152.539 16.7851 151.982 16.3343 151.389C15.9073 150.772 15.4446 150.084 14.9464 149.325L12.4909 145.339C12.1825 144.864 11.8504 144.354 11.4945 143.809C11.1624 143.263 10.7946 142.8 10.3913 142.421C10.0117 142.421 9.63215 142.421 9.25255 142.421C8.89669 142.421 8.52896 142.421 8.14936 142.421V148.293C8.14936 148.933 8.1375 149.514 8.11378 150.036C8.11378 150.535 8.09005 150.938 8.0426 151.246C8.3273 151.223 8.62385 151.211 8.93227 151.211C9.26442 151.187 9.5847 151.163 9.89312 151.14C10.2253 151.116 10.51 151.104 10.7472 151.104V153.061H1.8861ZM10.2134 140.677C11.5182 140.653 12.6333 140.452 13.5585 140.072C14.4838 139.669 15.1955 139.064 15.6938 138.257C16.192 137.427 16.4411 136.359 16.4411 135.054C16.4411 134.082 16.2987 133.263 16.014 132.599C15.7293 131.935 15.326 131.401 14.8041 130.997C14.2821 130.57 13.6534 130.274 12.918 130.108C12.2063 129.918 11.4352 129.823 10.6048 129.823C9.84567 129.823 9.28814 129.965 8.93227 130.25C8.60013 130.535 8.38661 130.95 8.29171 131.496C8.19681 132.041 8.14936 132.741 8.14936 133.595V140.57C8.50523 140.594 8.83737 140.63 9.14579 140.677C9.47794 140.701 9.8338 140.701 10.2134 140.677ZM40.7988 144.058C40.7988 143.038 40.6446 142.302 40.3362 141.851C40.0515 141.401 39.6126 141.128 39.0195 141.033C38.4264 140.914 37.6909 140.879 36.8131 140.926L34.7491 140.997V148.399C34.7491 149.04 34.7372 149.609 34.7135 150.108C34.7135 150.582 34.6898 150.974 34.6423 151.282L40.7632 151.211C41.6885 151.187 42.5188 151.021 43.2543 150.713C43.9898 150.38 44.571 149.823 44.998 149.04C45.4251 148.257 45.6386 147.189 45.6386 145.837H47.2044L46.9909 153.061H28.4858V151.495C29.2687 151.448 29.8262 151.282 30.1584 150.997C30.5142 150.713 30.7396 150.286 30.8345 149.716C30.9294 149.147 30.9769 148.423 30.9769 147.545V132.741C30.9769 132.219 30.9887 131.721 31.0125 131.247C31.0362 130.748 31.0599 130.321 31.0836 129.965C30.6803 129.989 30.2414 130.013 29.7669 130.037C29.2924 130.06 28.8654 130.084 28.4858 130.108V128.151H45.8521L46.0301 134.592H44.4642C44.4642 133.239 44.2389 132.207 43.7881 131.496C43.3611 130.784 42.7917 130.309 42.0799 130.072C41.3919 129.835 40.6446 129.728 39.838 129.752L37.3469 129.823C36.6114 129.823 36.0539 129.954 35.6743 130.215C35.2947 130.452 35.0456 130.855 34.927 131.425C34.8084 131.97 34.7491 132.718 34.7491 133.667V139.254H40.6209L40.4074 136.193H42.3646V144.058H40.7988ZM73.5047 153.559L60.2664 135.98C60.0055 135.671 59.7563 135.351 59.5191 135.019C59.2819 134.687 59.0328 134.343 58.7718 133.987H58.7362L58.843 147.83C58.843 148.423 58.8311 149.016 58.8074 149.609C58.8074 150.202 58.7836 150.748 58.7362 151.246C59.1395 151.199 59.5784 151.175 60.0529 151.175C60.5511 151.151 60.9782 151.128 61.334 151.104V153.061H54.2879V151.495C54.9521 151.495 55.4504 151.365 55.7825 151.104C56.1384 150.843 56.3756 150.499 56.4942 150.072C56.6366 149.645 56.7078 149.147 56.7078 148.577V132.634C56.7078 132.16 56.7078 131.686 56.7078 131.211C56.7078 130.737 56.7196 130.321 56.7433 129.965C56.3637 129.989 55.9367 130.013 55.4622 130.037C55.0114 130.06 54.6081 130.084 54.2523 130.108V128.151H58.9497L71.4763 144.627C71.8796 145.149 72.2354 145.636 72.5439 146.086C72.876 146.537 73.1963 146.964 73.5047 147.367H73.5403L73.5759 132.741C73.5759 132.219 73.5877 131.721 73.6115 131.247C73.6352 130.748 73.6589 130.321 73.6826 129.965C73.2556 129.989 72.8048 130.013 72.3303 130.037C71.8558 130.06 71.4407 130.084 71.0848 130.108V128.151H78.131V129.716C77.3718 129.74 76.8143 129.906 76.4584 130.215C76.1263 130.499 75.9127 130.926 75.8178 131.496C75.7467 132.041 75.7111 132.765 75.7111 133.667L75.6755 153.559H73.5047ZM92.8861 129.716C92.1981 129.716 91.6762 129.847 91.3203 130.108C90.9644 130.369 90.7272 130.725 90.6086 131.175C90.49 131.602 90.4306 132.089 90.4306 132.634V141.851C90.4306 143.251 90.5374 144.532 90.7509 145.695C90.9882 146.834 91.3559 147.83 91.8541 148.684C92.3761 149.514 93.0759 150.167 93.9537 150.641C94.8553 151.116 95.9466 151.365 97.2277 151.389C98.8173 151.389 100.122 151.033 101.142 150.321C102.162 149.609 102.922 148.589 103.42 147.261C103.942 145.932 104.215 144.354 104.238 142.528L104.309 132.741C104.309 132.219 104.321 131.721 104.345 131.247C104.369 130.748 104.393 130.321 104.416 129.965C104.013 129.989 103.574 130.013 103.1 130.037C102.625 130.06 102.198 130.084 101.818 130.108V128.151H109.007V129.716C108.224 129.74 107.655 129.906 107.299 130.215C106.967 130.499 106.753 130.926 106.658 131.496C106.563 132.041 106.504 132.765 106.48 133.667L106.445 142.136C106.445 143.844 106.243 145.41 105.84 146.834C105.46 148.233 104.867 149.443 104.06 150.463C103.277 151.484 102.269 152.267 101.035 152.812C99.8255 153.358 98.3902 153.631 96.7295 153.631C94.8078 153.631 93.1945 153.37 91.8897 152.848C90.5849 152.326 89.541 151.555 88.7581 150.535C87.9989 149.491 87.4532 148.221 87.1211 146.727C86.7889 145.208 86.6229 143.465 86.6229 141.496V133.809C86.6229 133.168 86.6347 132.468 86.6584 131.709C86.7059 130.95 86.7415 130.369 86.7652 129.965C86.3619 129.989 85.923 130.013 85.4485 130.037C84.974 130.037 84.547 130.049 84.1674 130.072V128.151H92.8861V129.716Z" fill="#020617"/>
<path d="M128.351 151.495C129.134 151.448 129.692 151.282 130.024 150.997C130.38 150.713 130.605 150.286 130.7 149.716C130.795 149.147 130.842 148.423 130.842 147.545V132.741C130.842 132.219 130.854 131.721 130.878 131.247C130.901 130.748 130.925 130.321 130.949 129.965C130.546 129.989 130.107 130.013 129.632 130.037C129.158 130.06 128.731 130.084 128.351 130.108V128.151C129.751 128.127 131.174 128.115 132.622 128.115C134.069 128.091 135.54 128.079 137.034 128.079C139.264 128.079 141.15 128.352 142.693 128.898C144.258 129.42 145.456 130.226 146.287 131.318C147.141 132.385 147.58 133.738 147.604 135.375C147.627 136.3 147.461 137.261 147.105 138.257C146.749 139.23 146.144 140.143 145.29 140.997C144.436 141.828 143.274 142.504 141.803 143.026C140.356 143.548 138.529 143.809 136.323 143.809C136.085 143.832 135.812 143.844 135.504 143.844C135.219 143.844 134.923 143.832 134.614 143.809V148.293C134.614 148.933 134.602 149.514 134.579 150.036C134.579 150.535 134.555 150.938 134.508 151.246C134.84 151.223 135.196 151.199 135.575 151.175C135.955 151.151 136.323 151.14 136.678 151.14C137.058 151.116 137.402 151.092 137.71 151.068V153.061H128.351V151.495ZM134.614 141.923C135.018 141.97 135.362 142.006 135.646 142.029C135.955 142.029 136.311 142.029 136.714 142.029C138.043 142.029 139.217 141.78 140.237 141.282C141.257 140.784 142.052 140.06 142.621 139.111C143.191 138.162 143.475 137.035 143.475 135.731C143.475 134.592 143.298 133.643 142.942 132.884C142.61 132.101 142.135 131.496 141.518 131.069C140.925 130.618 140.237 130.298 139.454 130.108C138.671 129.918 137.841 129.823 136.963 129.823C136.251 129.823 135.729 129.965 135.397 130.25C135.065 130.535 134.852 130.95 134.757 131.496C134.662 132.041 134.614 132.741 134.614 133.595V141.923ZM153.7 153.061V151.495C154.483 151.448 155.04 151.282 155.372 150.997C155.728 150.713 155.954 150.286 156.048 149.716C156.143 149.147 156.191 148.423 156.191 147.545V132.741C156.191 132.219 156.203 131.721 156.226 131.247C156.25 130.748 156.274 130.321 156.298 129.965C155.894 129.989 155.455 130.013 154.981 130.037C154.506 130.06 154.079 130.084 153.7 130.108V128.151H162.454V129.716C161.695 129.74 161.137 129.906 160.781 130.215C160.426 130.499 160.2 130.926 160.105 131.496C160.01 132.041 159.963 132.765 159.963 133.667V148.399C159.963 149.04 159.951 149.609 159.927 150.108C159.927 150.582 159.904 150.974 159.856 151.282L165.87 151.211C167.341 151.187 168.468 150.713 169.251 149.787C170.034 148.838 170.425 147.344 170.425 145.303H172.027L171.813 153.061H153.7ZM185.592 129.716C184.904 129.716 184.382 129.847 184.027 130.108C183.671 130.369 183.433 130.725 183.315 131.175C183.196 131.602 183.137 132.089 183.137 132.634V141.851C183.137 143.251 183.244 144.532 183.457 145.695C183.694 146.834 184.062 147.83 184.56 148.684C185.082 149.514 185.782 150.167 186.66 150.641C187.561 151.116 188.653 151.365 189.934 151.389C191.523 151.389 192.828 151.033 193.848 150.321C194.869 149.609 195.628 148.589 196.126 147.261C196.648 145.932 196.921 144.354 196.945 142.528L197.016 132.741C197.016 132.219 197.028 131.721 197.051 131.247C197.075 130.748 197.099 130.321 197.122 129.965C196.719 129.989 196.28 130.013 195.806 130.037C195.331 130.06 194.904 130.084 194.525 130.108V128.151H201.713V129.716C200.93 129.74 200.361 129.906 200.005 130.215C199.673 130.499 199.459 130.926 199.364 131.496C199.27 132.041 199.21 132.765 199.187 133.667L199.151 142.136C199.151 143.844 198.949 145.41 198.546 146.834C198.166 148.233 197.573 149.443 196.767 150.463C195.984 151.484 194.975 152.267 193.742 152.812C192.532 153.358 191.096 153.631 189.436 153.631C187.514 153.631 185.901 153.37 184.596 152.848C183.291 152.326 182.247 151.555 181.464 150.535C180.705 149.491 180.159 148.221 179.827 146.727C179.495 145.208 179.329 143.465 179.329 141.496V133.809C179.329 133.168 179.341 132.468 179.365 131.709C179.412 130.95 179.448 130.369 179.471 129.965C179.068 129.989 178.629 130.013 178.155 130.037C177.68 130.037 177.253 130.049 176.874 130.072V128.151H185.592V129.716ZM222.278 135.837C222.16 134.627 221.851 133.536 221.353 132.563C220.855 131.591 220.167 130.82 219.289 130.25C218.411 129.657 217.32 129.372 216.015 129.396C214.686 129.396 213.631 129.764 212.848 130.499C212.065 131.235 211.673 132.124 211.673 133.168C211.673 134.094 211.934 134.876 212.456 135.517C212.978 136.134 213.678 136.691 214.556 137.19C215.457 137.688 216.466 138.186 217.581 138.684C218.482 139.064 219.396 139.491 220.321 139.965C221.246 140.44 222.088 140.986 222.848 141.602C223.607 142.195 224.212 142.919 224.662 143.773C225.113 144.603 225.339 145.588 225.339 146.727C225.339 148.055 224.995 149.242 224.307 150.286C223.619 151.329 222.634 152.148 221.353 152.741C220.095 153.334 218.565 153.631 216.762 153.631C215.742 153.631 214.663 153.476 213.524 153.168C212.409 152.86 211.389 152.421 210.463 151.851L210.641 153.346H208.47L208.328 145.517H210.036C210.226 147.581 210.962 149.147 212.243 150.214C213.548 151.258 215.101 151.78 216.905 151.78C217.806 151.78 218.625 151.614 219.36 151.282C220.095 150.95 220.677 150.475 221.104 149.858C221.531 149.242 221.744 148.518 221.744 147.688C221.744 146.715 221.448 145.896 220.855 145.232C220.285 144.568 219.55 143.999 218.648 143.524C217.77 143.05 216.845 142.599 215.873 142.172C214.9 141.745 213.951 141.294 213.026 140.819C212.124 140.345 211.306 139.799 210.57 139.182C209.835 138.566 209.253 137.842 208.826 137.012C208.399 136.158 208.186 135.161 208.186 134.022C208.186 133.358 208.304 132.658 208.542 131.923C208.779 131.187 209.182 130.487 209.752 129.823C210.321 129.159 211.092 128.625 212.065 128.222C213.061 127.795 214.307 127.581 215.801 127.581C216.703 127.581 217.711 127.712 218.826 127.973C219.965 128.234 220.997 128.696 221.922 129.361L221.78 127.866H223.915V135.837H222.278Z" fill="#B68F00"/>
<path d="M35.1246 186.068C34.541 184.73 33.9573 183.392 33.3737 182.054C32.7901 180.716 32.2136 179.371 31.6442 178.019C31.4734 177.62 31.2955 177.186 31.1104 176.716C30.9254 176.246 30.7403 175.748 30.5553 175.221C30.3702 174.695 30.1923 174.161 30.0215 173.62C30.0215 173.99 30.0215 174.346 30.0215 174.688C30.0215 175.029 30.0215 175.357 30.0215 175.67C30.0072 176.111 29.993 176.631 29.9788 177.229C29.9645 177.812 29.9432 178.431 29.9147 179.086C29.9005 179.741 29.8862 180.396 29.872 181.051C29.872 181.691 29.8649 182.31 29.8506 182.908C29.8506 183.25 29.8435 183.584 29.8293 183.912C29.8151 184.239 29.7937 184.524 29.7652 184.766C30.0215 184.737 30.2919 184.723 30.5766 184.723C30.8755 184.709 31.1389 184.695 31.3666 184.68V185.855H27.0322V184.915C27.4307 184.901 27.7368 184.823 27.9503 184.68C28.1638 184.538 28.3062 184.325 28.3773 184.04C28.4628 183.755 28.5126 183.406 28.5268 182.994L28.8257 173.769C28.84 173.456 28.8542 173.143 28.8684 172.83C28.8827 172.517 28.8969 172.239 28.9111 171.997C28.6549 172.011 28.3845 172.026 28.0998 172.04C27.8151 172.04 27.566 172.047 27.3524 172.061V170.908H31.0891L34.6121 179.321C34.783 179.705 34.9538 180.118 35.1246 180.559C35.2954 180.986 35.4662 181.414 35.637 181.841C35.8221 182.253 35.9858 182.645 36.1281 183.015H36.1708C36.3274 182.588 36.5054 182.118 36.7046 181.606C36.9039 181.093 37.0747 180.638 37.2171 180.239C37.8292 178.702 38.4484 177.164 39.0747 175.627C39.7153 174.09 40.3416 172.517 40.9537 170.908H44.7117V171.848C44.37 171.848 44.0782 171.912 43.8362 172.04C43.6085 172.154 43.4377 172.367 43.3238 172.681C43.2241 172.994 43.1886 173.442 43.217 174.026L43.6868 183.228C43.7152 183.513 43.7224 183.791 43.7081 184.061C43.7081 184.332 43.701 184.559 43.6868 184.744C43.943 184.73 44.2134 184.723 44.4981 184.723C44.7971 184.709 45.0533 184.695 45.2668 184.68V185.855H40.0996V184.915C40.5124 184.901 40.8256 184.816 41.0391 184.659C41.2669 184.502 41.4163 184.26 41.4875 183.933C41.5587 183.591 41.58 183.15 41.5516 182.609L41.2099 176.396C41.1957 176.182 41.1815 175.933 41.1672 175.648C41.153 175.35 41.1316 175.043 41.1032 174.73C41.0889 174.403 41.0747 174.09 41.0605 173.791C41.0178 173.89 40.9751 173.997 40.9324 174.111C40.8896 174.211 40.8469 174.325 40.8042 174.453L36.2135 186.068H35.1246ZM58.1253 180.453C58.1253 179.841 58.0328 179.399 57.8477 179.129C57.6769 178.858 57.4136 178.695 57.0577 178.638C56.7018 178.567 56.2606 178.545 55.7339 178.574L54.4955 178.616V183.058C54.4955 183.442 54.4883 183.784 54.4741 184.083C54.4741 184.367 54.4599 184.602 54.4314 184.787L58.104 184.744C58.6591 184.73 59.1573 184.631 59.5986 184.446C60.0399 184.246 60.3886 183.912 60.6448 183.442C60.9011 182.972 61.0292 182.332 61.0292 181.52H61.9687L61.8406 185.855H50.7375V184.915C51.2072 184.887 51.5418 184.787 51.741 184.616C51.9546 184.446 52.0898 184.189 52.1467 183.848C52.2037 183.506 52.2321 183.072 52.2321 182.545V173.663C52.2321 173.35 52.2393 173.051 52.2535 172.766C52.2677 172.467 52.282 172.211 52.2962 171.997C52.0542 172.011 51.7909 172.026 51.5062 172.04C51.2215 172.054 50.9653 172.068 50.7375 172.083V170.908H61.1573L61.2641 174.773H60.3246C60.3246 173.962 60.1893 173.342 59.9189 172.915C59.6627 172.488 59.321 172.204 58.894 172.061C58.4812 171.919 58.0328 171.855 57.5488 171.869L56.0542 171.912C55.6129 171.912 55.2784 171.99 55.0506 172.147C54.8229 172.289 54.6734 172.531 54.6022 172.873C54.531 173.2 54.4955 173.648 54.4955 174.218V177.57H58.0185L57.8904 175.734H59.0648V180.453H58.1253ZM75.5211 186.068C74.9375 184.73 74.3539 183.392 73.7702 182.054C73.1866 180.716 72.6101 179.371 72.0407 178.019C71.8699 177.62 71.692 177.186 71.5069 176.716C71.3219 176.246 71.1368 175.748 70.9518 175.221C70.7667 174.695 70.5888 174.161 70.418 173.62C70.418 173.99 70.418 174.346 70.418 174.688C70.418 175.029 70.418 175.357 70.418 175.67C70.4037 176.111 70.3895 176.631 70.3753 177.229C70.361 177.812 70.3397 178.431 70.3112 179.086C70.297 179.741 70.2827 180.396 70.2685 181.051C70.2685 181.691 70.2614 182.31 70.2472 182.908C70.2472 183.25 70.24 183.584 70.2258 183.912C70.2116 184.239 70.1902 184.524 70.1617 184.766C70.418 184.737 70.6884 184.723 70.9731 184.723C71.2721 184.709 71.5354 184.695 71.7631 184.68V185.855H67.4287V184.915C67.8273 184.901 68.1333 184.823 68.3468 184.68C68.5603 184.538 68.7027 184.325 68.7739 184.04C68.8593 183.755 68.9091 183.406 68.9233 182.994L69.2223 173.769C69.2365 173.456 69.2507 173.143 69.265 172.83C69.2792 172.517 69.2934 172.239 69.3077 171.997C69.0514 172.011 68.781 172.026 68.4963 172.04C68.2116 172.04 67.9625 172.047 67.749 172.061V170.908H71.4856L75.0087 179.321C75.1795 179.705 75.3503 180.118 75.5211 180.559C75.6919 180.986 75.8627 181.414 76.0336 181.841C76.2186 182.253 76.3823 182.645 76.5247 183.015H76.5674C76.7239 182.588 76.9019 182.118 77.1012 181.606C77.3004 181.093 77.4713 180.638 77.6136 180.239C78.2257 178.702 78.8449 177.164 79.4712 175.627C80.1118 174.09 80.7381 172.517 81.3502 170.908H85.1082V171.848C84.7665 171.848 84.4747 171.912 84.2327 172.04C84.005 172.154 83.8342 172.367 83.7203 172.681C83.6207 172.994 83.5851 173.442 83.6135 174.026L84.0833 183.228C84.1117 183.513 84.1189 183.791 84.1046 184.061C84.1046 184.332 84.0975 184.559 84.0833 184.744C84.3395 184.73 84.61 184.723 84.8947 184.723C85.1936 184.709 85.4498 184.695 85.6633 184.68V185.855H80.4961V184.915C80.9089 184.901 81.2221 184.816 81.4356 184.659C81.6634 184.502 81.8128 184.26 81.884 183.933C81.9552 183.591 81.9765 183.15 81.9481 182.609L81.6064 176.396C81.5922 176.182 81.578 175.933 81.5637 175.648C81.5495 175.35 81.5282 175.043 81.4997 174.73C81.4854 174.403 81.4712 174.09 81.457 173.791C81.4143 173.89 81.3716 173.997 81.3289 174.111C81.2862 174.211 81.2435 174.325 81.2008 174.453L76.6101 186.068H75.5211ZM91.134 185.855V184.915C91.6038 184.901 91.9383 184.808 92.1376 184.638C92.3511 184.453 92.4863 184.182 92.5432 183.826C92.6002 183.47 92.6287 183.022 92.6287 182.481V173.769C92.6287 173.385 92.6358 173.044 92.65 172.745C92.6642 172.431 92.6785 172.182 92.6927 171.997C92.4507 172.011 92.1874 172.026 91.9027 172.04C91.618 172.054 91.3618 172.068 91.134 172.083V170.908C91.9881 170.894 92.8422 170.887 93.6963 170.887C94.5503 170.873 95.4258 170.866 96.3226 170.866C98.0022 170.866 99.319 171.172 100.273 171.784C101.226 172.382 101.682 173.321 101.639 174.602C101.625 175.043 101.49 175.485 101.234 175.926C100.992 176.353 100.621 176.737 100.123 177.079C99.625 177.406 99.0058 177.648 98.2656 177.805V177.848C99.7887 177.919 100.927 178.317 101.682 179.043C102.436 179.755 102.814 180.623 102.814 181.648C102.814 182.531 102.586 183.292 102.13 183.933C101.689 184.559 101.084 185.036 100.315 185.364C99.5609 185.691 98.6926 185.855 97.7104 185.855H91.134ZM94.8279 184.787C95.0699 184.787 95.3332 184.794 95.6179 184.808C95.9026 184.808 96.1731 184.808 96.4293 184.808C96.6998 184.808 96.8991 184.808 97.0272 184.808C98.0521 184.794 98.8563 184.517 99.44 183.976C100.024 183.435 100.315 182.68 100.315 181.712C100.315 180.915 100.152 180.296 99.8243 179.855C99.5111 179.399 99.0983 179.079 98.5859 178.894C98.0734 178.709 97.5254 178.616 96.9418 178.616C96.5432 178.616 96.1802 178.624 95.8528 178.638C95.5396 178.638 95.2194 178.645 94.892 178.659V183.036C94.892 183.421 94.8849 183.762 94.8706 184.061C94.8706 184.36 94.8564 184.602 94.8279 184.787ZM94.892 177.613L96.3012 177.57C97.0414 177.556 97.625 177.399 98.0521 177.1C98.4933 176.801 98.8065 176.417 98.9916 175.947C99.1766 175.478 99.262 174.987 99.2478 174.474C99.2478 173.762 99.0983 173.221 98.7994 172.851C98.5005 172.481 98.1304 172.225 97.6891 172.083C97.2478 171.94 96.8137 171.869 96.3866 171.869C95.988 171.869 95.682 171.926 95.4685 172.04C95.255 172.154 95.1055 172.353 95.0201 172.638C94.9347 172.908 94.892 173.314 94.892 173.855V177.613ZM115.426 180.453C115.426 179.841 115.333 179.399 115.148 179.129C114.977 178.858 114.714 178.695 114.358 178.638C114.002 178.567 113.561 178.545 113.034 178.574L111.796 178.616V183.058C111.796 183.442 111.789 183.784 111.774 184.083C111.774 184.367 111.76 184.602 111.732 184.787L115.404 184.744C115.959 184.73 116.458 184.631 116.899 184.446C117.34 184.246 117.689 183.912 117.945 183.442C118.201 182.972 118.329 182.332 118.329 181.52H119.269L119.141 185.855H108.038V184.915C108.507 184.887 108.842 184.787 109.041 184.616C109.255 184.446 109.39 184.189 109.447 183.848C109.504 183.506 109.532 183.072 109.532 182.545V173.663C109.532 173.35 109.539 173.051 109.554 172.766C109.568 172.467 109.582 172.211 109.596 171.997C109.354 172.011 109.091 172.026 108.806 172.04C108.522 172.054 108.265 172.068 108.038 172.083V170.908H118.458L118.564 174.773H117.625C117.625 173.962 117.49 173.342 117.219 172.915C116.963 172.488 116.621 172.204 116.194 172.061C115.781 171.919 115.333 171.855 114.849 171.869L113.354 171.912C112.913 171.912 112.579 171.99 112.351 172.147C112.123 172.289 111.974 172.531 111.902 172.873C111.831 173.2 111.796 173.648 111.796 174.218V177.57H115.319L115.191 175.734H116.365V180.453H115.426ZM124.9 185.855V184.915C125.369 184.887 125.704 184.787 125.903 184.616C126.117 184.446 126.252 184.189 126.309 183.848C126.366 183.506 126.394 183.072 126.394 182.545V173.663C126.394 173.35 126.401 173.051 126.416 172.766C126.43 172.467 126.444 172.211 126.458 171.997C126.216 172.011 125.953 172.026 125.668 172.04C125.384 172.054 125.127 172.068 124.9 172.083V170.908C125.768 170.894 126.643 170.887 127.526 170.887C128.409 170.873 129.298 170.873 130.195 170.887C131.533 170.887 132.636 171.044 133.505 171.357C134.373 171.656 135.021 172.104 135.448 172.702C135.889 173.3 136.102 174.054 136.088 174.965C136.102 175.535 135.989 176.104 135.747 176.673C135.505 177.229 135.099 177.727 134.529 178.168C133.96 178.609 133.177 178.944 132.181 179.172C132.465 179.342 132.722 179.577 132.949 179.876C133.177 180.175 133.412 180.51 133.654 180.88L134.957 182.887C135.227 183.314 135.476 183.677 135.704 183.976C135.932 184.275 136.188 184.51 136.473 184.68C136.757 184.837 137.099 184.915 137.497 184.915V185.855H134.529C134.159 185.542 133.839 185.207 133.569 184.851C133.312 184.481 133.035 184.068 132.736 183.613L131.263 181.221C131.078 180.937 130.878 180.631 130.665 180.303C130.465 179.976 130.245 179.698 130.003 179.47C129.775 179.47 129.547 179.47 129.32 179.47C129.106 179.47 128.885 179.47 128.658 179.47V182.994C128.658 183.378 128.651 183.727 128.636 184.04C128.636 184.339 128.622 184.581 128.594 184.766C128.764 184.752 128.942 184.744 129.127 184.744C129.327 184.73 129.519 184.716 129.704 184.702C129.903 184.687 130.074 184.68 130.216 184.68V185.855H124.9ZM129.896 178.424C130.679 178.41 131.348 178.289 131.903 178.061C132.458 177.819 132.885 177.456 133.184 176.972C133.483 176.474 133.633 175.834 133.633 175.051C133.633 174.467 133.547 173.976 133.376 173.577C133.206 173.179 132.964 172.858 132.651 172.616C132.337 172.36 131.96 172.182 131.519 172.083C131.092 171.969 130.629 171.912 130.131 171.912C129.675 171.912 129.341 171.997 129.127 172.168C128.928 172.339 128.8 172.588 128.743 172.915C128.686 173.243 128.658 173.663 128.658 174.175V178.36C128.871 178.374 129.07 178.396 129.256 178.424C129.455 178.438 129.668 178.438 129.896 178.424ZM150.76 175.52C150.689 174.794 150.504 174.14 150.205 173.556C149.906 172.972 149.493 172.51 148.966 172.168C148.44 171.812 147.785 171.641 147.002 171.656C146.205 171.656 145.571 171.876 145.101 172.318C144.632 172.759 144.397 173.293 144.397 173.919C144.397 174.474 144.553 174.944 144.867 175.328C145.18 175.698 145.6 176.033 146.126 176.332C146.667 176.631 147.272 176.93 147.941 177.229C148.482 177.456 149.03 177.712 149.585 177.997C150.141 178.282 150.646 178.609 151.101 178.979C151.557 179.335 151.92 179.769 152.19 180.282C152.461 180.78 152.596 181.371 152.596 182.054C152.596 182.851 152.39 183.563 151.977 184.189C151.564 184.816 150.973 185.307 150.205 185.663C149.45 186.018 148.532 186.196 147.45 186.196C146.838 186.196 146.19 186.104 145.507 185.919C144.838 185.734 144.226 185.47 143.671 185.129L143.778 186.026H142.475L142.39 181.328H143.415C143.529 182.567 143.97 183.506 144.738 184.147C145.521 184.773 146.454 185.086 147.536 185.086C148.077 185.086 148.568 184.986 149.009 184.787C149.45 184.588 149.799 184.303 150.055 183.933C150.311 183.563 150.439 183.129 150.439 182.631C150.439 182.047 150.262 181.556 149.906 181.157C149.564 180.759 149.123 180.417 148.582 180.132C148.055 179.848 147.5 179.577 146.916 179.321C146.333 179.065 145.763 178.794 145.208 178.51C144.667 178.225 144.176 177.898 143.735 177.527C143.294 177.157 142.945 176.723 142.689 176.225C142.432 175.713 142.304 175.115 142.304 174.431C142.304 174.033 142.376 173.613 142.518 173.172C142.66 172.73 142.902 172.31 143.244 171.912C143.585 171.513 144.048 171.193 144.632 170.951C145.23 170.695 145.977 170.567 146.874 170.567C147.415 170.567 148.02 170.645 148.689 170.802C149.372 170.958 149.991 171.236 150.546 171.634L150.461 170.737H151.742V175.52H150.76ZM158.165 185.855V184.915C158.635 184.887 158.969 184.787 159.169 184.616C159.382 184.446 159.517 184.189 159.574 183.848C159.631 183.506 159.66 183.072 159.66 182.545V173.663C159.66 173.35 159.667 173.051 159.681 172.766C159.695 172.467 159.709 172.211 159.724 171.997C159.482 172.011 159.218 172.026 158.934 172.04C158.649 172.054 158.393 172.068 158.165 172.083V170.908H163.418V171.848C162.962 171.862 162.628 171.962 162.414 172.147C162.201 172.318 162.065 172.574 162.008 172.915C161.951 173.243 161.923 173.677 161.923 174.218V177.698H168.99V173.663C168.99 173.35 168.998 173.051 169.012 172.766C169.026 172.467 169.04 172.211 169.055 171.997C168.813 172.011 168.549 172.026 168.265 172.04C167.98 172.054 167.724 172.068 167.496 172.083V170.908H172.748V171.848C172.293 171.862 171.958 171.962 171.745 172.147C171.531 172.318 171.396 172.574 171.339 172.915C171.282 173.243 171.254 173.677 171.254 174.218V182.994C171.254 183.378 171.247 183.727 171.232 184.04C171.232 184.339 171.218 184.581 171.19 184.766C171.432 184.737 171.695 184.723 171.98 184.723C172.264 184.709 172.521 184.695 172.748 184.68V185.855H167.496V184.915C167.966 184.887 168.3 184.787 168.499 184.616C168.713 184.446 168.848 184.189 168.905 183.848C168.962 183.506 168.99 183.072 168.99 182.545V178.809L161.923 178.873V182.994C161.923 183.378 161.916 183.727 161.902 184.04C161.902 184.339 161.887 184.581 161.859 184.766C162.101 184.737 162.364 184.723 162.649 184.723C162.948 184.709 163.204 184.695 163.418 184.68V185.855H158.165ZM183.824 171.848C183.369 171.862 183.034 171.962 182.821 172.147C182.607 172.318 182.472 172.574 182.415 172.915C182.358 173.243 182.33 173.677 182.33 174.218V182.994C182.33 183.378 182.323 183.727 182.308 184.04C182.308 184.339 182.294 184.581 182.266 184.766C182.508 184.737 182.771 184.723 183.056 184.723C183.355 184.709 183.611 184.695 183.824 184.68V185.855H178.572V184.915C179.041 184.887 179.376 184.787 179.575 184.616C179.789 184.446 179.924 184.189 179.981 183.848C180.038 183.506 180.066 183.072 180.066 182.545V173.663C180.066 173.35 180.074 173.051 180.088 172.766C180.102 172.467 180.116 172.211 180.13 171.997C179.888 172.011 179.625 172.026 179.34 172.04C179.056 172.054 178.8 172.068 178.572 172.083V170.908H183.824V171.848ZM189.637 184.915C190.107 184.887 190.441 184.787 190.641 184.616C190.854 184.446 190.989 184.189 191.046 183.848C191.103 183.506 191.132 183.072 191.132 182.545V173.663C191.132 173.35 191.139 173.051 191.153 172.766C191.167 172.467 191.181 172.211 191.196 171.997C190.954 172.011 190.69 172.026 190.406 172.04C190.121 172.054 189.865 172.068 189.637 172.083V170.908C190.477 170.894 191.331 170.887 192.199 170.887C193.068 170.873 193.95 170.866 194.847 170.866C196.185 170.866 197.317 171.029 198.242 171.357C199.181 171.67 199.9 172.154 200.398 172.809C200.911 173.449 201.174 174.261 201.188 175.243C201.203 175.798 201.103 176.374 200.89 176.972C200.676 177.556 200.313 178.104 199.801 178.616C199.288 179.115 198.591 179.52 197.708 179.833C196.84 180.147 195.744 180.303 194.42 180.303C194.278 180.317 194.114 180.325 193.929 180.325C193.758 180.325 193.58 180.317 193.395 180.303V182.994C193.395 183.378 193.388 183.727 193.374 184.04C193.374 184.339 193.359 184.581 193.331 184.766C193.53 184.752 193.744 184.737 193.971 184.723C194.199 184.709 194.42 184.702 194.633 184.702C194.861 184.687 195.068 184.673 195.253 184.659V185.855H189.637V184.915ZM193.395 179.172C193.637 179.2 193.843 179.221 194.014 179.236C194.199 179.236 194.413 179.236 194.655 179.236C195.452 179.236 196.156 179.086 196.769 178.787C197.381 178.488 197.858 178.054 198.199 177.485C198.541 176.915 198.712 176.239 198.712 175.456C198.712 174.773 198.605 174.204 198.391 173.748C198.192 173.278 197.907 172.915 197.537 172.659C197.181 172.389 196.769 172.197 196.299 172.083C195.829 171.969 195.331 171.912 194.804 171.912C194.377 171.912 194.064 171.997 193.865 172.168C193.665 172.339 193.537 172.588 193.48 172.915C193.423 173.243 193.395 173.663 193.395 174.175V179.172Z" fill="#020617"/>
</svg>
