<svg width="92" height="112" viewBox="0 0 92 112" fill="none" xmlns="http://www.w3.org/2000/svg">
<g clip-path="url(#clip0_2082_1885)">
<path d="M78.9271 18.1717C73.6664 39.8016 51.9888 72.5654 30.5083 91.3502C9.02983 110.132 -4.09912 107.296 1.16209 85.6655C6.42329 64.031 28.0993 31.2641 49.5783 12.4804C71.0593 -6.30444 84.1903 -3.46588 78.9271 18.1717Z" fill="url(#paint0_linear_2082_1885)"/>
<path d="M78.9275 18.1717C80.9418 9.88653 80.2513 4.36746 77.4385 1.75586C79.8004 4.5544 80.2816 9.87234 78.3975 17.6094C73.1389 39.2419 51.4618 72.0052 29.9833 90.7925C16.7267 102.384 6.65624 105.729 2.12305 101.518C6.36646 106.548 16.7085 103.417 30.5087 91.3498C51.9892 72.5645 73.6668 39.8017 78.9275 18.1717Z" fill="url(#paint1_linear_2082_1885)" style="mix-blend-mode:screen"/>
<path d="M6.21599 98.1481C5.4429 97.3269 4.59735 94.0399 6.32846 86.9255C11.3612 66.2222 32.3335 34.6236 53.0789 16.4822C66.0361 5.15072 72.8547 4.59902 73.8755 5.68419C74.6486 6.50491 75.4951 9.79537 73.7615 16.9118C68.7293 37.6111 47.7569 69.2046 27.011 87.3511C14.0554 98.6821 7.23429 99.2307 6.21548 98.1486L6.21599 98.1481Z" fill="url(#paint2_linear_2082_1885)"/>
<path d="M6.88928 87.5216C11.9235 66.8208 32.8964 35.2222 53.6418 17.0803C65.7347 6.5042 72.4762 5.31771 74.1516 6.0908C74.0599 5.91754 73.9672 5.78126 73.8755 5.68399C72.8547 4.59933 66.0356 5.15053 53.0789 16.482C32.3335 34.6239 11.3607 66.2225 6.32846 86.9258C4.59735 94.0397 5.4429 97.3272 6.21599 98.1484C6.28489 98.2219 6.38115 98.2837 6.50223 98.3404C5.84059 97.0789 5.36336 93.7809 6.88979 87.5216H6.88928Z" fill="url(#paint3_linear_2082_1885)" style="mix-blend-mode:color-burn"/>
<path d="M90.108 26.117C92.2251 17.3992 91.3619 11.8229 88.1656 9.49142C84.3797 6.73036 80.5922 3.97083 76.8073 1.20825C80.0015 3.53767 80.8673 9.11956 78.7507 17.8328C73.4875 39.4608 51.8089 72.2256 30.3294 91.0094C17.5024 102.232 7.56362 105.771 3.0127 102.396C5.32691 104.112 5.81884 104.594 14.2651 110.752C19.0055 114.207 28.8607 110.515 41.6903 99.2946C63.1718 80.5128 84.8483 47.7459 90.108 26.117Z" fill="url(#paint4_linear_2082_1885)"/>
</g>
<defs>
<linearGradient id="paint0_linear_2082_1885" x1="19.3681" y1="37.0114" x2="83.9928" y2="83.2054" gradientUnits="userSpaceOnUse">
<stop offset="0.054" stop-color="#A56008"/>
<stop offset="0.218" stop-color="#FFD44F"/>
<stop offset="0.484" stop-color="#FEEFBF"/>
<stop offset="0.653" stop-color="#FFD34C"/>
<stop offset="0.669" stop-color="#ECBB3E"/>
<stop offset="0.695" stop-color="#D29A2A"/>
<stop offset="0.722" stop-color="#BE801B"/>
<stop offset="0.75" stop-color="#B06E10"/>
<stop offset="0.779" stop-color="#A7630A"/>
<stop offset="0.812" stop-color="#A56008"/>
<stop offset="1" stop-color="#FFB921"/>
</linearGradient>
<linearGradient id="paint1_linear_2082_1885" x1="67.3968" y1="69.3883" x2="-12.0277" y2="18.4712" gradientUnits="userSpaceOnUse">
<stop offset="0.054" stop-color="#A56008"/>
<stop offset="0.218" stop-color="#FFD44F"/>
<stop offset="0.484" stop-color="#FEEFBF"/>
<stop offset="0.653" stop-color="#FFD34C"/>
<stop offset="0.669" stop-color="#ECBB3E"/>
<stop offset="0.695" stop-color="#D29A2A"/>
<stop offset="0.722" stop-color="#BE801B"/>
<stop offset="0.75" stop-color="#B06E10"/>
<stop offset="0.779" stop-color="#A7630A"/>
<stop offset="0.812" stop-color="#A56008"/>
<stop offset="1" stop-color="#FFB921"/>
</linearGradient>
<linearGradient id="paint2_linear_2082_1885" x1="20.6463" y1="36.3385" x2="145.618" y2="135.85" gradientUnits="userSpaceOnUse">
<stop offset="0.054" stop-color="#A56008"/>
<stop offset="0.218" stop-color="#FFD44F"/>
<stop offset="0.484" stop-color="#FEEFBF"/>
<stop offset="0.653" stop-color="#FFD34C"/>
<stop offset="0.669" stop-color="#ECBB3E"/>
<stop offset="0.695" stop-color="#D29A2A"/>
<stop offset="0.722" stop-color="#BE801B"/>
<stop offset="0.75" stop-color="#B06E10"/>
<stop offset="0.779" stop-color="#A7630A"/>
<stop offset="0.812" stop-color="#A56008"/>
<stop offset="1" stop-color="#FFB921"/>
</linearGradient>
<linearGradient id="paint3_linear_2082_1885" x1="24.0481" y1="39.0465" x2="98.346" y2="98.2083" gradientUnits="userSpaceOnUse">
<stop offset="0.054" stop-color="#A56008"/>
<stop offset="0.218" stop-color="#FFD44F"/>
<stop offset="0.484" stop-color="#FEEFBF"/>
<stop offset="0.653" stop-color="#FFD34C"/>
<stop offset="0.669" stop-color="#ECBB3E"/>
<stop offset="0.695" stop-color="#D29A2A"/>
<stop offset="0.722" stop-color="#BE801B"/>
<stop offset="0.75" stop-color="#B06E10"/>
<stop offset="0.779" stop-color="#A7630A"/>
<stop offset="0.812" stop-color="#A56008"/>
<stop offset="1" stop-color="#FFB921"/>
</linearGradient>
<linearGradient id="paint4_linear_2082_1885" x1="88.9637" y1="11.6989" x2="11.7463" y2="119.057" gradientUnits="userSpaceOnUse">
<stop offset="0.054" stop-color="#A56008"/>
<stop offset="0.218" stop-color="#FFD44F"/>
<stop offset="0.484" stop-color="#FEEFBF"/>
<stop offset="0.653" stop-color="#FFD34C"/>
<stop offset="0.812" stop-color="#A56008"/>
<stop offset="1" stop-color="#FFB921"/>
</linearGradient>
<clipPath id="clip0_2082_1885">
<rect width="91.2637" height="112" fill="white"/>
</clipPath>
</defs>
</svg>
