<svg xmlns="http://www.w3.org/2000/svg" viewBox="0 0 500 500" width="100%" height="100%">
  <defs>
    <radialGradient id="goldBack" cx="50%" cy="50%" r="60%" fx="30%" fy="30%">
      <stop offset="0%" stop-color="#ffe44d" />
      <stop offset="70%" stop-color="#e6b800" />
      <stop offset="100%" stop-color="#997a00" />
    </radialGradient>
    <filter id="emboss">
      <feDropShadow dx="1" dy="2" stdDeviation="1" flood-color="#ffffff" flood-opacity="0.3" />
      <feDropShadow dx="-1" dy="-1" stdDeviation="1" flood-color="#000000" flood-opacity="0.3" />
    </filter>
  </defs>

  <circle cx="250" cy="250" r="240" fill="url(#goldBack)" stroke="#8b6508" stroke-width="8" />
  
  <circle cx="250" cy="250" r="190" fill="url(#goldBack)" stroke="#a67c00" stroke-width="4" />

  <rect x="200" y="200" width="100" height="100" rx="12" fill="none" stroke="#5c4400" stroke-width="8" filter="url(#emboss)" />
  <circle cx="250" cy="250" r="15" fill="#5c4400" filter="url(#emboss)" />

  <g stroke="#5c4400" stroke-width="8" stroke-linecap="round" fill="none" filter="url(#emboss)">
    <path d="M 250 200 L 250 130" />
    <circle cx="250" cy="120" r="10" fill="#5c4400" stroke="none" />
    <path d="M 250 300 L 250 370" />
    <circle cx="250" cy="380" r="10" fill="#5c4400" stroke="none" />
    
    <path d="M 200 250 L 130 250" />
    <circle cx="120" cy="250" r="10" fill="#5c4400" stroke="none" />
    <path d="M 300 250 L 370 250" />
    <circle cx="380" cy="250" r="10" fill="#5c4400" stroke="none" />
    
    <path d="M 215 215 L 160 160" />
    <circle cx="150" cy="150" r="10" fill="#5c4400" stroke="none" />
    <path d="M 285 215 L 340 160" />
    <circle cx="350" cy="150" r="10" fill="#5c4400" stroke="none" />
    <path d="M 215 285 L 160 340" />
    <circle cx="150" cy="350" r="10" fill="#5c4400" stroke="none" />
    <path d="M 285 285 L 340 340" />
    <circle cx="350" cy="350" r="10" fill="#5c4400" stroke="none" />
  </g>
</svg>
